<svg xmlns="http://www.w3.org/2000/svg" width="400" height="381.55" viewBox="0 0 400 381.55"><path fill="#951AFA" fill-rule="evenodd" d="M323.086 2.622c-14.194 3.441-25.438 15.142-27.925 29.061-.922 5.159-.884 5.666 1.308 17.269.521 2.755-4.772 8.045-40.369 40.347a4485.495 4485.495 0 0 0-16.675 15.214c-23.35 21.452-36.601 33.488-39.88 36.222l-3.714 3.097-2.528-1.536c-1.39-.845-5.683-3.764-9.539-6.486-16.621-11.735-36.945-25.894-70.48-49.103-9.336-6.46-22.014-15.246-28.173-19.522-20.45-14.198-38.786-26.89-47.796-33.083-14.079-9.678-20.55-10.446-28.418-3.372C3.036 36 3.461 22.958 3.59 193.722l.116 153.5 1.653 3.326c3.196 6.434 11.435 10.005 18.82 8.157 4.446-1.112 15.784-8.815 79.88-54.273a12538.22 12538.22 0 0 1 21.402-15.129 3848.446 3848.446 0 0 0 23.408-16.656 5841.574 5841.574 0 0 1 23.188-16.558c6.577-4.668 14.31-10.224 17.183-12.347 2.874-2.123 5.562-3.867 5.973-3.875.745-.015 6.781 5.247 31.727 27.661 7.228 6.494 14.502 12.962 16.164 14.372 1.662 1.41 4.848 4.266 7.081 6.346 2.232 2.08 8.672 7.9 14.311 12.934 26.623 23.767 32.535 29.313 32.265 30.272-10.63 37.781 32.174 63.799 59.965 36.449 28.475-28.025-6.709-75.375-42.457-57.138-1.648.841-2.928 1.115-3.194.684-.404-.654-14.037-13.076-28.829-26.269-31.818-28.378-66.013-59.468-65.98-59.989.016-.256 1.594-1.682 3.505-3.168 1.912-1.487 8.415-6.591 14.451-11.343l10.975-8.641 41.418.103 41.419.103.865 2.499c10.648 30.757 58.626 27.08 67.018-5.137 10.72-41.157-48.953-64.179-66.329-25.589l-1.409 3.128-42.709-.034-42.709-.034-7.948-5.371c-4.371-2.954-10.364-7.174-13.318-9.377l-5.37-4.006 2.085-1.763c3.648-3.084 23.799-21.492 35.658-32.574a8173.17 8173.17 0 0 1 40.176-37.274c4.843-4.462 11.279-10.448 14.302-13.302l5.498-5.188 5.167 1.733c20.972 7.034 44.053-6.549 47.812-28.136 4.078-23.418-19.96-44.96-43.737-39.196"/></svg>